<?xml version="1.0" encoding="utf-8"?>
<!-- Generator: Adobe Illustrator 27.0.0, SVG Export Plug-In . SVG Version: 6.00 Build 0)  -->
<svg version="1.1" id="Concept_1_00000103947636287769866500000001575466523896774315_"
	 xmlns="http://www.w3.org/2000/svg" xmlns:xlink="http://www.w3.org/1999/xlink" x="0px" y="0px" viewBox="0 0 154 107.4"
	 style="enable-background:new 0 0 154 107.4;" xml:space="preserve">
<style type="text/css">
	.st0{fill:#0E1829;}
	.st1{fill:#2563EB;}
</style>
<g id="Vector_Smart_Object_xA0_Image_00000175286250582783969640000016970339555614812598_">
</g>
<g id="Vector_Smart_Object_xA0_Image_00000124143105594449743040000001991380992540408458_">
	<g>
		<path class="st0" d="M84.4,57.1C84.4,57.1,84.6,57.3,84.4,57.1c0.4,0.4,0.6,0.6,0.8,1c2,2,3.8,4,5.8,5.8c2.4,2.4,4.8,4.8,7.2,7.2
			c0.6,0.6,1.2,1.2,1.8,1.8c0.4,0.4,0.8,1,0.8,1.6c0.4,1.6,0,3.2-1.2,4.2c-0.6,0.4-1.2,0.8-2,0.8c-0.6,0-1,0-1.6-0.2
			c-0.6-0.2-1.2-0.6-1.6-1c-1.6-1.6-3.2-3.2-4.8-4.8c-3.4-3.6-7-7-10.4-10.6c-0.2-0.2-0.2-0.2-0.4-0.4c0,0,0,0.2-0.2,0.2
			c-4.4,4.4-8.6,8.6-13.1,13.1c-0.6,0.6-1.4,1.4-2,2c-0.4,0.4-1,0.8-1.6,1.2c-1,0.4-2,0.6-3,0.4c-0.4,0-0.8-0.2-1.2-0.4
			c-1.6-0.8-2.6-2-3-3.6c-0.4-1.8,0-3.2,1.2-4.6c0.2-0.2,0.2-0.4,0.4-0.4c0.2-0.2,0.6-0.6,0.8-0.8c4.6-4.6,9.4-9.4,14.1-14.1
			c0,0,0,0,0.2-0.2c0,0,0,0-0.2-0.2c-1.6-1.6-3.2-3.2-4.6-4.8c-0.2-0.2-0.2-0.2-0.4-0.2c-0.8-0.2-1.6-0.2-2.4,0.2
			c-0.4,0.2-0.8,0.4-1.2,0.8l-0.2,0.2c-0.2,0.2-0.2,0.2,0,0.4c0.2,0.2,0.4,0.4,0.4,0.8c0,0.4,0,0.8,0,1.2c-0.2,0.2-0.2,0.6-0.6,0.8
			c-0.4,0.4-0.8,0.8-1.2,1.2c-0.2,0.2-0.4,0.4-0.8,0.6c-0.6,0.2-1,0.2-1.6,0c-0.2-0.2-0.4-0.4-0.6-0.6c-1.4-1.4-2.8-2.8-4.2-4.2
			c-0.4-0.4-0.8-0.8-1.2-1.2c-0.2-0.2-0.4-0.4-0.4-0.8c-0.2-0.4-0.2-1,0-1.4c0-0.2,0.2-0.4,0.4-0.6c0.6-0.6,1-1.2,1.6-1.6
			c0.6-0.6,1.4-0.6,2-0.2l0.2,0.2c0.2,0,0.4,0,0.4,0l0.2-0.2c3-3,6-6,8.8-9c0.8-0.8,1.8-1.6,3-2.4c1.4-1,3-1.4,4.8-1.8
			c2.2-0.2,4.2,0,6.4,0.6c0.4,0.2,0.6,0.2,1,0.4c0.2,0,0.4,0.2,0.6,0.6c0.2,0.4,0,0.6-0.4,0.8c0,0-0.2,0-0.6,0c-0.4,0-0.6,0-1,0
			c-0.6,0-1.2,0-1.6,0c-0.4,0-0.8,0.2-1.2,0.4c-0.8,0.4-1.8,1-2.4,1.6c-1.2,1-2,2.2-2.4,3.8c-0.2,1-0.2,1.8,0,2.8
			c0,0.4,0.2,0.6,0.2,1c0,0.2,0,0.2,0.2,0.2c1.6,1.6,3,3.2,4.6,4.6l0.2,0.2c0,0,0,0,0.2-0.2c1.4-1.4,3-3,4.4-4.4
			c0.2-0.2,0.2-0.4,0.2-0.6c-0.2-0.6-0.2-1.4-0.2-2c0-2.2,0.6-4.2,2-6c0.8-1.2,2-2,3.2-2.8c1-0.6,2.2-1,3.4-1.2c0.6,0,1-0.2,1.6,0
			c0.6,0,1,0.4,1.4,0.8c0.2,0.4,0.2,0.8,0,1.2c0,0.2-0.2,0.2-0.2,0.2c-1,1-2,2-3,3l-0.2,0.2c-0.8,0.6-1,1.4-1,2.4
			c0,1.6,1,2.8,2.2,3.8c0.6,0.6,1.4,0.8,2.2,1c0.6,0.2,1.2,0,1.8-0.2c0.4-0.2,0.6-0.4,1-0.6c1-1,2.2-2.2,3.2-3.2
			c0.2-0.2,0.2-0.2,0.4-0.4c0.4-0.2,0.6-0.2,1-0.2c0.6,0.4,1,0.8,1,1.4c0,1.8-0.4,3.6-1.2,5.2c-0.6,1.2-1.6,2.2-2.6,3
			c-1.2,1-2.6,1.6-4.2,1.8c-0.8,0.2-1.6,0.2-2.4,0.2c-0.4,0-0.8,0-1.2-0.2c-0.4,0-0.6,0-0.8,0.2C87.4,54.1,86,55.5,84.4,57.1
			C84.6,56.9,84.4,57.1,84.4,57.1z M62.1,74.4c0-1.2-0.8-2-2-2c-1.2,0-2,1-2,2c0,1.2,1,2,2,2C61.1,76.4,62.1,75.4,62.1,74.4z"/>
	</g>
	<g>
		<path class="st1" d="M47.7,100.9c-7.4-0.2-14.9-0.2-22.3-1c-7.6-0.8-10.6-4.8-10.9-12.5c0-5.2,0-10.2,0-15.5c0-6.8-2.2-9.2-8.8-10
			c-0.8,0-1.6-0.2-2.6-0.4c0-2,0-3.8,0-5.6c0-2,0-3.8,0-6c1.8-0.2,3.4-0.4,5-0.8c4.6-1,6.6-3.4,6.6-8.2c0-5.2,0-10.6,0-15.9
			c0-9.2,3-13.1,12.1-13.9c6.8-0.6,13.9-0.2,21.1-0.2c0,3.6,0,7,0,10.9c-4.2,0-8.2,0-12.3,0c-1,0-2,0-3.2,0.2
			c-4,0.6-5.6,2.4-5.6,6.6c0,4.6,0,9.2,0,13.7c0,7.4-2.2,10.4-9.4,12.5c-0.4,0.2-0.6,0.2-1.4,0.6c1.4,0.4,2.4,0.8,3.4,1
			c5,1.6,7.4,4.8,7.4,10.2c0,5,0,10,0,15.3c0,4.6,1.6,6.6,6.4,7c3.8,0.2,7.8,0.2,11.9,0.2c1,0,1.8,0,3,0
			C47.7,93.3,47.7,96.9,47.7,100.9z"/>
		<path class="st1" d="M106.3,100.7c0-3.6,0-7.2,0-11.1c2.4,0,4.8,0,7.2,0c2.6,0,5.2,0,8-0.2c4.2-0.4,5.8-2.4,6-6.6
			c0-4.8,0-9.4,0-14.3c0-7.2,2.2-10,9.2-12.1c0.4,0,0.8-0.2,1.2-0.8c-0.8-0.2-1.6-0.4-2.4-0.6c-5.2-1.6-8-5-8-10.6
			c0-4.8,0-9.6,0-14.5c0-5.4-2-7.6-7.6-7.6c-4,0-8,0-12.1,0c-0.4,0-1,0-1.4-0.2c0-3.6,0-7,0-11.1c7.8,0.2,15.7,0,23.3,1
			c6.6,0.8,9.4,4.8,9.6,11.5c0.2,5.6,0,11.1,0,16.7c0,6.6,2.6,9.2,9.2,9.8c0.8,0,1.4,0.2,2.2,0.2c0,4,0,7.8,0,11.7
			c-1.2,0.2-2.6,0.2-3.8,0.4c-5.2,0.8-7.6,3.6-7.6,8.8c0,5.2,0,10.6,0,15.9c0,1.6-0.2,3-0.4,4.6c-0.6,3.6-2.6,6.2-6,7.4
			c-2.4,0.8-5.2,1.6-7.6,1.6C119,100.7,112.8,100.7,106.3,100.7z"/>
	</g>
</g>
</svg>
